<svg width="220" height="69" viewBox="0 0 220 69" fill="none" xmlns="http://www.w3.org/2000/svg">
<path d="M0 0L36.744 12V56.8892L0 68.8892V12" fill="white"/>
<path d="M18.4932 40.0854V32.7154H33.7432V51.7654C29.6032 53.1788 25.0498 53.8854 20.0832 53.8854C14.6365 53.8854 10.4265 52.3088 7.45316 49.1554C4.47983 45.9954 2.99316 41.4921 2.99316 35.6454C2.99316 29.9388 4.62316 25.4988 7.88316 22.3254C11.1365 19.1521 15.6965 17.5654 21.5632 17.5654C23.7832 17.5654 25.8798 17.7721 27.8532 18.1854C29.8265 18.6054 31.5465 19.1388 33.0132 19.7854L29.9932 27.2754C27.4465 26.0221 24.6498 25.3954 21.6032 25.3954C18.8165 25.3954 16.6632 26.3021 15.1432 28.1154C13.6165 29.9288 12.8532 32.5188 12.8532 35.8854C12.8532 39.1854 13.5432 41.7021 14.9232 43.4354C16.3032 45.1688 18.2898 46.0354 20.8832 46.0354C22.3032 46.0354 23.6065 45.8988 24.7932 45.6254V40.0854H18.4932Z" fill="black"/>
<path d="M67.4712 53.61H57.9812V38.67C57.9812 34.9967 56.8912 33.16 54.7112 33.16C53.1645 33.16 52.0245 33.81 51.2912 35.11C50.5579 36.4033 50.1912 38.5567 50.1912 41.57V53.61H40.7412V16H50.1912V21.34C50.1912 23.76 50.0645 26.5167 49.8112 29.61H50.2412C51.1479 28.19 52.2212 27.19 53.4612 26.61C54.7012 26.03 56.1412 25.74 57.7812 25.74C60.8412 25.74 63.2212 26.6233 64.9212 28.39C66.6212 30.1567 67.4712 32.6267 67.4712 35.8V53.61Z" fill="white"/>
<path d="M97.3571 53.4061H90.8071L88.9971 49.7761H88.8071C87.5337 51.3561 86.2371 52.4361 84.9171 53.0161C83.5971 53.5961 81.8871 53.8861 79.7871 53.8861C77.2137 53.8861 75.1837 53.1128 73.6971 51.5661C72.2171 50.0195 71.4771 47.8461 71.4771 45.0461C71.4771 42.1261 72.4904 39.9528 74.5171 38.5261C76.5504 37.0995 79.4937 36.2995 83.3471 36.1261L87.9071 35.9761V35.5961C87.9071 33.3361 86.7971 32.2061 84.5771 32.2061C82.5771 32.2061 80.0404 32.8828 76.9671 34.2361L74.2271 28.0061C77.4204 26.3595 81.4504 25.5361 86.317 25.5361C89.8304 25.5361 92.5504 26.4061 94.4771 28.1461C96.3971 29.8861 97.3571 32.3195 97.3571 35.4461V53.4061ZM83.8071 47.2161C84.9471 47.2161 85.9237 46.8528 86.7371 46.1261C87.5504 45.4061 87.9571 44.4661 87.9571 43.3061V41.1761L85.7871 41.2761C82.6737 41.3895 81.1171 42.5328 81.1171 44.7061C81.1171 46.3795 82.0137 47.2161 83.8071 47.2161Z" fill="white"/>
<path d="M128.089 53.4061H118.639V38.4661C118.639 36.6461 118.379 35.2728 117.859 34.3461C117.332 33.4195 116.489 32.9561 115.329 32.9561C113.736 32.9561 112.586 33.5928 111.879 34.8661C111.166 36.1395 110.809 38.3228 110.809 41.4161V53.4061H101.359V26.0261H108.489L109.679 29.4061H110.229C111.036 28.1195 112.152 27.1528 113.579 26.5061C115.006 25.8595 116.646 25.5361 118.499 25.5361C121.526 25.5361 123.882 26.4161 125.569 28.1761C127.249 29.9295 128.089 32.4028 128.089 35.5961V53.4061Z" fill="white"/>
<path d="M141.784 26.0261V53.4061H132.334V26.0261H141.784ZM132.094 19.2061C132.094 17.7861 132.487 16.7294 133.274 16.0361C134.067 15.3428 135.34 14.9961 137.094 14.9961C138.854 14.9961 140.137 15.3528 140.944 16.0661C141.744 16.7728 142.144 17.8194 142.144 19.2061C142.144 21.9794 140.46 23.3661 137.094 23.3661C133.76 23.3661 132.094 21.9794 132.094 19.2061Z" fill="white"/>
<path d="M189.215 53.4061H179.765V38.5161C179.765 36.6628 179.512 35.2728 179.005 34.3461C178.498 33.4195 177.698 32.9561 176.605 32.9561C175.152 32.9561 174.088 33.5761 173.415 34.8161C172.735 36.0561 172.395 37.9995 172.395 40.6461V53.4061H162.925V38.5161C162.925 36.6628 162.682 35.2728 162.195 34.3461C161.715 33.4195 160.935 32.9561 159.855 32.9561C158.368 32.9561 157.288 33.6161 156.615 34.9361C155.935 36.2628 155.595 38.4228 155.595 41.4161V53.4061H146.145V26.0261H153.275L154.465 29.4061H155.015C155.742 28.1461 156.795 27.1861 158.175 26.5261C159.548 25.8661 161.115 25.5361 162.875 25.5361C166.822 25.5361 169.592 26.7361 171.185 29.1361H171.935C172.708 28.0095 173.785 27.1295 175.165 26.4961C176.545 25.8561 178.062 25.5361 179.715 25.5361C182.955 25.5361 185.348 26.3661 186.895 28.0261C188.442 29.6861 189.215 32.2095 189.215 35.5961V53.4061Z" fill="white"/>
<path d="M207.62 53.8861C203.06 53.8861 199.52 52.6761 197 50.2561C194.48 47.8295 193.22 44.3761 193.22 39.8961C193.22 35.2695 194.387 31.7195 196.72 29.2461C199.06 26.7728 202.397 25.5361 206.73 25.5361C210.857 25.5361 214.044 26.6128 216.29 28.7661C218.537 30.9195 219.66 34.0161 219.66 38.0561V42.2661H202.77C202.83 43.7928 203.39 44.9928 204.45 45.8661C205.504 46.7328 206.94 47.1661 208.76 47.1661C210.42 47.1661 211.947 47.0095 213.34 46.6961C214.734 46.3828 216.244 45.8495 217.87 45.0961V51.8861C216.39 52.6395 214.86 53.1628 213.28 53.4561C211.7 53.7428 209.814 53.8861 207.62 53.8861ZM207.07 31.9661C205.957 31.9661 205.027 32.3161 204.28 33.0161C203.527 33.7161 203.087 34.8161 202.96 36.3161H211.08C211.047 34.9961 210.674 33.9428 209.96 33.1561C209.24 32.3628 208.277 31.9661 207.07 31.9661Z" fill="white"/>
</svg>
