<svg width="37" height="69" viewBox="0 0 37 69" fill="none" xmlns="http://www.w3.org/2000/svg">
<path d="M0 0L36.744 12V56.8892L0 68.8892V12" fill="black"/>
<path d="M18.4932 40.0854V32.7154H33.7432V51.7654C29.6032 53.1788 25.0498 53.8854 20.0832 53.8854C14.6365 53.8854 10.4265 52.3088 7.45316 49.1554C4.47983 45.9954 2.99316 41.4921 2.99316 35.6454C2.99316 29.9388 4.62316 25.4988 7.88316 22.3254C11.1365 19.1521 15.6965 17.5654 21.5632 17.5654C23.7832 17.5654 25.8798 17.7721 27.8532 18.1854C29.8265 18.6054 31.5465 19.1388 33.0132 19.7854L29.9932 27.2754C27.4465 26.0221 24.6498 25.3954 21.6032 25.3954C18.8165 25.3954 16.6632 26.3021 15.1432 28.1154C13.6165 29.9288 12.8532 32.5188 12.8532 35.8854C12.8532 39.1854 13.5432 41.7021 14.9232 43.4354C16.3032 45.1688 18.2898 46.0354 20.8832 46.0354C22.3032 46.0354 23.6065 45.8988 24.7932 45.6254V40.0854H18.4932Z" fill="white"/>
</svg>
